<?xml version="1.0" encoding="UTF-8"?>
<svg id="Capa_1" data-name="Capa 1" xmlns="http://www.w3.org/2000/svg" viewBox="0 0 216 216">
  <defs>
    <style>
      .cls-1 {
        fill: #04005e;
        stroke-width: 0px;
      }
    </style>
  </defs>
  <g>
    <path class="cls-1" d="M58.12,166.4c-1.97,6.18-6.36,9.46-13.21,9.46s-10.8-4.21-10.8-11.41,4.16-17.62,15.4-17.62c6.57,0,10.49,3.5,10.61,9.51h-6.84c-.07-2.09-.81-4.37-4.45-4.37-5.16,0-7.68,7.18-7.68,12.52,0,3.52,1.07,6.21,4.49,6.21,3.11,0,4.57-1.91,5.61-4.3h6.88Z"/>
    <path class="cls-1" d="M89.11,158.61c0,8.69-4.82,17.24-15.78,17.24-7.75,0-11.33-5.05-11.33-11.38,0-8.41,5.16-17.65,15.53-17.65,8.02,0,11.58,5.33,11.58,11.78ZM68.84,164.31c0,3.97,1.74,6.4,5.32,6.4,5.95,0,8.2-6.83,8.2-12.27,0-3.73-1.39-6.47-5.2-6.47-5.53,0-8.32,6.74-8.32,12.35Z"/>
    <path class="cls-1" d="M97.06,147.26h11.3c5.74,0,8.52,3.05,8.52,7.06,0,3.08-1.69,5.73-4.89,6.83,1.92.83,3.47,3.03,3.47,5.48,0,5.55-4.34,8.8-11.15,8.8h-13.24l5.97-28.16ZM98.61,170.48h5.02c2.91,0,4.91-1.34,4.91-3.95,0-2.07-1.12-3.27-4.29-3.27h-4.13l-1.51,7.21ZM105.66,158.34c2.57,0,4.51-.94,4.51-3.34s-1.75-2.8-3.39-2.8h-4.32l-1.29,6.14h4.49Z"/>
    <path class="cls-1" d="M127.02,164.28l-2.35,11.13h-6.54l5.97-28.16h11.24c5.53,0,8.81,2.79,8.81,7.47,0,3.81-2.29,6.39-5.71,7.35,1.13.56,3.22,1.95,2.25,6.7-.68,3.24-1.13,5.32-.94,6.65h-6.29c-.16-1.22.04-3.23.78-6.73.6-2.82.23-4.4-2.59-4.4h-4.62ZM128.08,159.19h4.34c2.92,0,5.03-1.06,5.03-3.79,0-1.91-1.03-3.04-3.73-3.04h-4.19l-1.45,6.84Z"/>
    <path class="cls-1" d="M157.5,147.26l-5.97,28.16h-6.6l5.97-28.16h6.6Z"/>
    <path class="cls-1" d="M165.11,169.28l-3.1,6.14h-6.92l14.95-28.16h8.46l3.4,28.16h-6.63l-.72-6.14h-9.43ZM174.36,164.01c-.53-5.33-.88-9.25-.99-11.86h-.06c-1.3,2.91-3.42,7.23-5.77,11.86h6.81Z"/>
  </g>
  <path class="cls-1" d="M129.29,79.09s-.06,0-.09,0c-.03-.05-.07-.1-.09-.18-.6-2.19-1.2-4.38-1.81-6.57-.02-.08-.01-.14,0-.2.7-.45,1.17-1.23,1.17-2.12,0-1.39-1.13-2.52-2.52-2.52-.59,0-1.13.21-1.56.56-.1.03-.19.03-.32-.04-1.23-.75-2.45-1.5-3.68-2.25-.15.04-.3.08-.45.12-.49.13-.98.21-1.47.27,1.63.99,3.25,1.99,4.88,2.98.08.05.15.1.2.17-.07.23-.12.46-.12.71,0,.4.1.77.27,1.11-.01.05-.03.1-.06.13-1.19,1.18-2.39,2.35-3.6,3.5-.08.08-.24.1-.36.11-.37.03-.73.05-1.1.07-.11,0-.26.01-.34-.05-2.16-1.67-4.32-3.35-6.47-5.03.03-.14.08-.26.08-.41,0-.69-.37-1.27-.91-1.62.02-.06.03-.1.03-.13.29-1.25.58-2.51.89-3.76.03-.11.17-.21.29-.26.35-.16.72-.26,1.05-.45.19-.11.31-.12.49,0,.61.38,1.22.75,1.84,1.12.27-.42.64-.69,1.06-.91-.75-.46-1.49-.91-2.24-1.37-.16-.1-.21-.2-.18-.4.17-1.29-.53-2.4-1.72-2.74-1.19-.34-2.37.24-2.9,1.44-.08.18-.17.24-.36.24-3.93,0-7.85,0-11.78,0-.21,0-.3-.06-.39-.26-.5-1.15-1.65-1.73-2.84-1.43-1.15.28-1.9,1.36-1.79,2.6.02.26-.05.39-.27.52-3.12,1.76-6.24,3.53-9.35,5.31-.07.04-.12.04-.17.05-.45-.45-1.08-.72-1.76-.72-1.39,0-2.52,1.13-2.52,2.52,0,.7.29,1.34.76,1.79.04.1.05.2-.02.33-1.08,2.22-2.16,4.45-3.23,6.67-.08.18-.17.24-.39.23-.06,0-.11-.02-.17-.02-.25,0-.49.05-.72.12-.02,0-.03,0-.04.01-1.01.33-1.75,1.26-1.75,2.39,0,1.31,1,2.37,2.28,2.49.05.08.1.15.12.28.54,2.92,1.1,5.85,1.65,8.77.03.16,0,.37-.08.52-.46.8-.02,1.69.89,1.83.13.02.29.1.38.21.95,1.1,1.88,2.22,2.82,3.32.34.4.71.78,1.04,1.19.12.15.21.36.21.55.02.69.49,1.18,1.19,1.22.16,0,.34.08.46.18.6.53,1.18,1.08,1.76,1.63-.02.1-.06.2-.06.31,0,.57.34,1.05.83,1.27.02.07.03.13.03.21,0,1.02,0,2.05-.01,3.07-.41.24-.7.67-.7,1.18,0,.63.43,1.14,1,1.3.1.04.2.06.31.06.02,0,.04.01.07.01.03,0,.05-.01.07-.02.04,0,.07,0,.11,0,.06,0,.11-.04.16-.05.59-.16,1.04-.67,1.04-1.31,0-.02-.01-.04-.01-.07.03-.03.05-.07.09-.1,1.14-.96,2.28-1.94,3.43-2.9.15.05.3.09.47.09.76,0,1.38-.62,1.38-1.38,0-.12-.04-.23-.07-.35.03-.07.06-.14.11-.19.83-.93,1.66-1.85,2.51-2.75.1-.11.29-.19.44-.21,0,0,0,0,.01,0,.75-.02,1.34-.62,1.34-1.37,0-.33-.13-.63-.33-.87.32-.88.65-1.75.97-2.62.11.01.21.03.32.03,1.36,0,2.49-.93,2.82-2.18,1.2,0,2.4,0,3.6,0,1.25,0,2.51,0,3.76,0,.1,0,.18.02.24.05.26.77.87,1.37,1.66,1.6.02,0,.03.01.05.02.21.06.43.1.67.1s.43-.04.64-.09c.11-.02.2-.06.3-.09.04-.02.08-.04.11-.05.21-.09.4-.21.56-.37.08-.07.15-.13.22-.21.02-.03.05-.06.07-.09.37-.44.6-1,.6-1.62,0-.77-.35-1.45-.9-1.91,0-.05,0-.1.03-.16.55-1.29,1.1-2.59,1.64-3.88.04-.1.1-.16.18-.2.05,0,.1.02.16.02.75,0,1.41-.33,1.87-.84.12-.1.23-.14.4-.07,1.07.42,2.14.83,3.21,1.24.19.07.22.19.23.37.05,1.35,1.09,2.37,2.42,2.38,1.28.01,2.36-.98,2.42-2.3.02-.38-.11-.78-.23-1.15-.06-.19-.06-.29.07-.43.73-.78,1.46-1.56,2.18-2.34.12-.13.23-.15.4-.11.29.12.6.18.93.18,1.39,0,2.52-1.13,2.52-2.52s-1.13-2.52-2.52-2.52ZM117.29,75.88c-.14.03-.18.04-.23.05-1.26.04-2.53.07-3.79.11-.22,0-.27-.12-.33-.28-.49-1.38-.99-2.75-1.48-4.13-.03-.07-.03-.15-.06-.32,1.99,1.55,3.91,3.04,5.89,4.58ZM111.08,74.5c.18.5.36,1.01.56,1.58-2.1.06-4.12.11-6.21.17-.02-.03-.04-.05-.05-.08.05-.09.08-.15.12-.19,1.23-1.56,2.46-3.11,3.69-4.67.21.08.44.14.68.14.04,0,.08-.02.12-.02.37,1.02.74,2.04,1.1,3.06ZM77.75,80.51c.04-.05.09-.1.14-.12,2.34-.88,4.68-1.75,7.02-2.6.36.47.91.79,1.54.79.35,0,.67-.12.95-.28,1.23,1.05,2.46,2.1,3.68,3.16-.11.25-.17.51-.17.8s.07.57.19.83c-1.2,1.02-2.4,2.03-3.6,3.05-.51-.42-1.15-.68-1.86-.68-.76,0-1.45.3-1.97.77-1.99-1.52-3.98-3.03-5.96-4.55-.03-.02-.06-.06-.09-.1.09-.26.15-.54.15-.83,0-.08-.02-.15-.02-.22ZM88.3,77.29c.08-.22.14-.45.14-.7,0-.2-.06-.37-.11-.55.08-.07.18-.13.29-.17.15-.06.28-.17.41-.26,2.09-1.35,4.17-2.69,6.26-4.04.06-.04.11-.05.16-.06.35.32.81.53,1.32.53.28,0,.54-.06.78-.16,1.52,1.44,3.03,2.88,4.53,4.33,0,0,0,0,0,0-.19.31-.34.65-.34,1.04,0,0,0,0,0,.01-2.45,1.21-4.91,2.43-7.36,3.63-.02,0-.04,0-.06.01-.36-.38-.87-.62-1.43-.62-.31,0-.6.09-.87.22-1.25-1.06-2.49-2.13-3.73-3.2ZM95.19,82c2.35-1.16,4.7-2.33,7.06-3.49.23.27.53.48.87.59-.06,1.71-.13,3.41-.19,5.12,0,.05-.03.1-.05.15-.25.12-.46.29-.63.5-.09,0-.18.01-.27-.02-1.64-.6-3.27-1.21-4.91-1.81-.71-.26-1.41-.52-2.19-.81,0-.03-.01-.05-.01-.07.14-.07.24-.12.32-.17ZM103.01,75.21c-1.5-1.42-2.99-2.85-4.47-4.27.07-.13.1-.27.14-.41,3.13-.16,6.21-.31,9.32-.47.04.13.1.26.17.38-1.25,1.58-2.49,3.16-3.74,4.74-.06.07-.19.1-.29.12-.06,0-.11,0-.17,0-.07,0-.13-.04-.21-.04-.12,0-.22.05-.33.07,0,0-.01,0-.02,0-.13,0-.3-.03-.39-.11ZM96.12,63.31c.32-.33.64-.68.88-1.07.13-.22.24-.29.48-.29,1.93,0,3.86,0,5.8,0,1.94,0,3.89,0,5.83,0,.24,0,.35.07.47.29.22.37.51.72.82,1.02.15.15.19.24.14.44-.29,1.22-.57,2.44-.87,3.65-.02.06-.06.13-.11.18-.7.11-1.29.55-1.55,1.19-.6.02-1.21.06-1.81.09-2.55.13-5.1.25-7.64.39-.31-.65-.95-1.1-1.71-1.13,0-.02-.02-.03-.03-.06-.29-1.43-.58-2.87-.87-4.3-.04-.19.03-.27.16-.4ZM83.39,68.55c3.17-1.8,6.33-3.6,9.5-5.39.09-.05.25-.01.36.03.36.15.71.35,1.08.47.2.07.28.13.32.34.28,1.4.56,2.8.85,4.2.02.12,0,.25-.04.37-.16.14-.28.31-.38.49-.13.09-.27.16-.42.15-2.83-.12-5.66-.25-8.5-.38-.93-.04-1.87-.09-2.89-.14,0-.02-.01-.04-.02-.05.06-.05.09-.08.12-.09ZM77.03,78.53c1.07-2.19,2.13-4.38,3.18-6.58.08-.16.18-.23.31-.26.1.01.2.03.3.03,1.08,0,1.99-.68,2.35-1.63.08-.04.17-.06.31-.06,2.81.13,5.62.26,8.43.38.79.04,1.58.08,2.42.12-.05.08-.05.09-.06.09-2.24,1.45-4.48,2.9-6.72,4.34-.32-.21-.68-.37-1.09-.37-1.06,0-1.91.84-1.97,1.89-.04.03-.08.06-.14.08-2.27.84-4.55,1.69-6.82,2.53-.13.05-.25.08-.38,0-.05-.05-.09-.11-.14-.16-.07-.14-.06-.26.02-.41ZM78.11,92.07c-.57-2.98-1.13-5.96-1.7-8.93-.01-.06-.02-.11-.02-.16.15-.08.3-.17.43-.28.06.03.11.08.16.12,1.97,1.5,3.93,3,5.9,4.48.01,0,.02.02.03.02-.13.33-.21.69-.21,1.06s.08.74.21,1.07c-.11.08-.23.16-.36.24-1.45.85-2.88,1.75-4.36,2.65-.04-.12-.07-.2-.08-.28ZM83.65,94.49c-.12.52-.23,1.05-.37,1.57,0,0,0,.02,0,.02l-.13.57c-.05.06-.06.13-.05.21l-.34,1.43s-.04,0-.06-.01l-.27-.33c-.06-.12-.13-.23-.24-.3l-.45-.56s0,0,0,0c-.01-.02-.03-.04-.05-.05l-.19-.23h0c-.8-.96-1.63-1.91-2.46-2.85-.28-.32-.28-.39.07-.61,1.52-.93,3.05-1.86,4.57-2.8.23.2.48.38.76.5-.28,1.14-.53,2.29-.79,3.44ZM84.33,98.7s1.18-6.26,1.41-7.4c.92-.03,1.72-.48,2.23-1.17.09.02.19.05.3.09,2.59.96,5.19,1.9,7.78,2.86,0,.09-.03.17-.03.26,0,.17.02.34.05.5-.29.12-11.46,4.73-11.46,4.73h.01c-.1.04-.2.08-.3.13h0ZM87.58,107.72c0-1.16,0-2.22.01-3.28,0-.06.19-.19.28-.18.29.03.57.11.86.17.69.15,1.38.3,2.16.47-1.12.95-2.17,1.85-3.31,2.81ZM92.98,102.86c-.14.15-.27.31-.44.42-.09-.02-.17-.05-.27-.05-.37,0-.71.15-.96.39-.61-.12-1.21-.26-1.82-.39v-.08c1.53-.55,3.07-1.1,4.61-1.64.01.02.03.04.04.06-.39.43-.78.86-1.17,1.29ZM96.39,98.39c-.63.11-1.12.63-1.14,1.29-.02.01-.05.02-.08.03-2.29.82-4.59,1.63-6.88,2.45-.17.06-.33.12-.5.15-.25-.29-.61-.47-1.02-.47-.14,0-.27.04-.4.08-.56-.5-1.11-1.02-1.66-1.54-.08-.07-.15-.16-.25-.26.18-.08.31-.14.44-.19.7-.3,1.41-.6,2.11-.9h0s7.83-3.23,7.83-3.23h0c.6-.24,1.19-.48,1.78-.73.21.29.47.54.78.73-.32.87-.61,1.75-1,2.58ZM99.95,90.6c-.31-.11-.64-.18-.99-.18-1.05,0-1.96.56-2.48,1.39-.35-.12-.7-.25-1.04-.37-2.31-.84-4.61-1.68-6.92-2.53.03-.17.05-.34.05-.52,0-.42-.09-.82-.25-1.19,1.25-1.05,2.49-2.11,3.75-3.15.26.12.54.2.84.2.61,0,1.13-.29,1.5-.72.09,0,.18.01.28.05,2.14.8,4.28,1.58,6.42,2.37.25.09.5.17.67.34.01.33.11.63.27.9,0,.02,0,.05,0,.07-.69,1.12-1.38,2.23-2.08,3.33ZM109.32,92.76h-.28c-2.35,0-4.71-.01-7.06,0-.05,0-.1,0-.14,0-.11-.55-.38-1.05-.76-1.44.61-.96,1.22-1.93,1.81-2.9.07-.12.14-.23.22-.33.2.07.41.13.64.13.32,0,.61-.09.88-.23,1.57,1.4,3.14,2.79,4.72,4.17.07.06.08.12.11.17-.06.14-.11.28-.14.43ZM113.83,86.89c-.55,1.29-1.1,2.59-1.63,3.88-.02.05-.05.06-.07.09-.12-.02-.23-.04-.36-.04-.52,0-1,.16-1.4.42-.04-.02-.07-.03-.11-.06-.93-.83-1.86-1.64-2.79-2.47-.62-.55-1.25-1.11-1.91-1.69.07-.15.08-.32.11-.48,2.3-.27,4.61-.53,6.91-.83.21-.03.38-.03.53.02.17.37.43.68.75.93,0,.07,0,.13-.04.22ZM112.91,84.29c-.08.05-.16.09-.29.1-2.34.27-4.68.55-7.01.83-.04,0-.08,0-.13.01-.25-.48-.69-.83-1.23-.97.07-1.73.13-3.45.2-5.18.63-.24,1.07-.8,1.2-1.48.02,0,.04-.02.05-.02,1.03-.02,5.11-.17,6.11-.18.21,0,.31.05.39.25.57,1.62,1.15,3.24,1.74,4.86.01.04,0,.06,0,.09-.56.38-.94.99-1.05,1.68ZM115.8,82.2c-.13-.02-.27-.04-.4-.04-.04,0-.07,0-.11.01-.02-.03-.06-.05-.07-.1-.2-.61-.43-1.21-.65-1.82-.34-.95-.67-1.89-1.03-2.9,1.36-.04,2.65-.09,3.95-.12.28,0,.51.35.39.61-.64,1.42-1.29,2.83-1.95,4.24-.02.04-.07.08-.12.11ZM117.59,83.49c-.13-.24-.3-.46-.49-.65,0-.07,0-.14.05-.22.61-1.3,1.21-2.61,1.8-3.93.13-.3.26-.52.64-.52.17,0,.34-.15.52-.2.13-.04.3-.07.4-.02,2,1.02,4,2.05,6,3.08.11.06.18.21.26.31-.11.08-.21.2-.33.22-1.72.39-3.45.78-5.17,1.16-1.18.26-2.35.53-3.6.8-.01-.01-.05-.04-.08-.06ZM127.02,83.09c-.76.82-1.51,1.63-2.28,2.44-.06.06-.23.08-.32.05-1.01-.36-1.9-.17-2.64.59-.16.17-.29.17-.48.1-1.01-.4-2.03-.79-3.04-1.18-.12-.05-.23-.1-.35-.15,0-.03,0-.05,0-.08,3.05-.68,6.11-1.36,9.16-2.04.01.03.03.07.04.1-.03.06-.05.13-.09.17ZM127.46,79.88c-.13.04-.26.04-.42-.07-.19-.13-.41-.22-.62-.33-1.75-.9-3.49-1.8-5.24-2.7-.35-.18-.44-.81-.16-1.08,1.16-1.14,2.33-2.27,3.49-3.41.05-.05.09-.08.13-.12.38.23.82.37,1.3.37.03.04.06.08.08.15.6,2.2,1.2,4.4,1.82,6.59.03.1.04.17.02.24-.14.1-.27.22-.39.34Z"/>
  <path class="cls-1" d="M154.56,62.85c-.83-.19-1.62-.37-2.4-.57-3.35-.87-6.73-1.57-10.21-1.63-.72-.01-1.48-.09-2.17.08-2.99.73-5.97,1.53-8.95,2.31-3.63.95-7.25,1.92-10.89,2.86-1.28.33-2.58.5-3.89.07-.68-.23-.92-.95-.54-1.56.24-.39.57-.64.94-.86.27-.19.58-.34.88-.48,2.87-1.33,5.74-2.63,8.59-4,.28-.13.54-.28.8-.43.86-.53,1.63-1.18,2.28-1.99.73-.92,1.07-1.95.72-3.16-.21-.72-.67-1.34-1.24-1.83-.86-.75-1.79-1.47-2.91-1.63-3.68-.52-7.37-.96-11.06-1.39-.41-.05-.83.03-1.2.22-3.72,1.9-10.85,6.64-14.58,8.54-.69.35-1.79,1.18-3.69.95-1.06-.13-1.69-1.34-1.11-2.24.28-.43.65-.82,1.07-1.12,4.63-3.31,12.77-9.05,17.43-12.34.03-.02.07-.03.11-.05.05-.03.09-.07.14-.1.14-.1.35-.16.52-.15,3.61.31,7.23.63,10.84.95,2.95.26,5.9.51,8.84.78.88.08,1.79.12,2.63.37,2.3.69,4.56,1.49,6.84,2.24,4.65,1.53,9.3,3.06,13.96,4.58.1.03.17.07.23.11.39.11.8.23,1.22.37.55.18,1.12-.18,1.19-.75,0,0,0-.01,0-.02.08-.61-.3-1.2-.89-1.39-1.82-.58-3.65-1.15-5.47-1.75-3.53-1.16-7.06-2.35-10.59-3.52-1.89-.63-3.78-1.25-5.67-1.86-.51-.16-1.35-.33-1.88-.38-4.5-.41-9-.81-13.5-1.21-2.74-.24-5.49-.48-8.23-.7-.27-.02-.54.05-.76.21-2.23,1.55-4.44,3.13-6.65,4.7-2.58,1.83-8.72,6.47-11.31,8.29-1.07.76-1.94,1.67-2.22,3-.36,1.69.75,3.39,2.42,3.85,1.14.31,2.28.22,3.39-.13.66-.21,4.87-3.28,5.57-3.54-.24.8-.35,1.56-.13,2.32.43,1.51,1.71,2.21,3.21,2.11,1.29-.09,2.39-.67,3.32-1.51,1.16-1.05,2.26-2.18,3.37-3.3,1.63-1.63,3.24-3.27,4.86-4.89.11-.11.34-.19.5-.17,2.27.26,4.55.51,6.82.84,1.06.15,1.9.8,2.57,1.62.41.51.33,1.03-.15,1.63-.6.75-1.37,1.33-2.21,1.75-1.68.84-3.38,1.63-5.08,2.43-1.4.66-2.81,1.28-4.2,1.94-1.2.57-2.14,1.41-2.54,2.73-.45,1.47.33,3.07,1.74,3.68,1.18.51,2.42.62,3.66.42,1.43-.23,2.85-.57,4.25-.93,3.44-.88,6.86-1.8,10.29-2.71,2.25-.59,4.49-1.22,6.76-1.75.74-.17,1.54-.11,2.31-.09,2.87.1,5.71.59,8.49,1.33,1.64.44,3.31.78,4.97,1.14.66.14,1.18-.28,1.27-.99.1-.78-1.61-.95-2.7-1.29ZM115,51.04c-2.1,2.12-4.18,4.25-6.3,6.35-.72.71-1.54,1.34-2.63,1.44-.66.06-1.12-.33-1-.97.09-.48.31-.97.57-1.39.38-.6.84-1.15,1.3-1.69.19-.23.42-.45.68-.58,2.15-1.13,4.31-2.23,6.46-3.37.39-.21.76-.22,1.2-.08-.11.12-.19.21-.28.3Z"/>
  <path class="cls-1" d="M130.83,110.03c-1.21-.19-2.35.05-3.44.55-.63.29-1.24.63-1.91.97.14-.82.15-1.59-.17-2.32-.62-1.44-1.98-1.98-3.46-1.68-1.26.25-2.29.96-3.11,1.92-1.02,1.19-1.97,2.45-2.93,3.7-1.41,1.82-2.8,3.66-4.21,5.47-.1.13-.31.23-.47.23-2.29.03-4.58.08-6.87.04-1.07-.02-1.99-.55-2.75-1.28-.47-.45-.46-.98-.06-1.64.5-.82,1.19-1.49,1.97-2.02,1.56-1.05,3.15-2.05,4.73-3.06,1.3-.83,2.63-1.62,3.92-2.46,1.12-.72,1.94-1.67,2.17-3.03.27-1.57-.64-2.97-2.17-3.42-1.24-.37-2.5-.32-3.71.04-1.39.41-2.75.92-4.1,1.46-3.3,1.31-6.58,2.66-9.87,3.99-2.16.87-4.3,1.78-6.48,2.59-.72.27-1.54.31-2.32.38-3.03.28-6.05.06-9.07-.31-1.52-.19-3.04-.31-4.57-.44-.67-.06-1.2.43-1.14,1.15.08.93,2.13,1.07,2.13,1.07,1.03.11,1.99.19,2.94.31,3.43.44,6.87.7,10.33.32.72-.08,1.48-.1,2.14-.35,2.88-1.1,5.73-2.27,8.58-3.43,3.48-1.4,6.95-2.83,10.44-4.21,1.22-.49,2.49-.82,3.83-.56.83.16,1.1.71.75,1.48-.29.65-.84,1.02-1.41,1.38-2.67,1.68-5.36,3.34-8.01,5.06-1.19.77-2.23,1.74-2.97,2.97-.54.89-.76,1.83-.46,2.84.28.91.9,1.58,1.69,2.1.92.61,1.91,1.18,3.01,1.19,3.72.05,7.43.02,11.15-.02.39,0,.84-.15,1.17-.37,3.45-2.36,6.87-4.76,10.32-7.12.63-.43,1.32-.8,2.04-1.08.54-.21,1.16-.29,1.74-.3.96-.01,1.48.76,1.09,1.64-.22.49-.56.97-.96,1.33-4.18,3.87-8.37,7.72-12.57,11.57-.13.12-.33.2-.49.21-3.62.15-7.25.29-10.87.44-2.96.12-5.91.24-8.87.34-.89.03-1.79.11-2.66-.03-2.37-.39-4.71-.9-7.07-1.35-4.71-.91-9.41-1.82-14.12-2.71-.2.03-2.9-.71-2.9.57,0,.75.31,1.12,1.05,1.26,1.88.35,3.77.68,5.65,1.04,3.65.71,7.3,1.44,10.95,2.15,2.2.43,4.4.86,6.6,1.26.38.07.79.02,1.18,0,4.52-.17,9.03-.34,13.54-.51,2.75-.11,5.5-.22,8.26-.35.25-.01.55-.14.74-.31,2.01-1.82,4-3.66,5.99-5.5,2.33-2.14,4.66-4.28,6.99-6.42.96-.88,1.7-1.89,1.82-3.23.16-1.79-1.01-3.24-2.8-3.52ZM123.04,111.93c-.3.64-.69,1.24-1.07,1.84-.16.25-.36.5-.6.66-1.99,1.4-3.99,2.76-5.98,4.16-.36.26-.72.31-1.18.23.09-.13.16-.23.24-.33,1.81-2.37,3.61-4.75,5.45-7.09.63-.8,1.36-1.52,2.43-1.76.65-.14,1.15.19,1.11.84-.03.49-.18,1-.39,1.45Z"/>
</svg>