<?xml version="1.0" encoding="UTF-8"?>
<svg id="Capa_1" data-name="Capa 1" xmlns="http://www.w3.org/2000/svg" viewBox="0 0 216 216">
  <defs>
    <style>
      .cls-1 {
        fill: #04005e;
        stroke-width: 0px;
      }
    </style>
  </defs>
  <path class="cls-1" d="M128.19,99.66s-.08.01-.12.01c-.05-.07-.09-.14-.12-.25-.84-3.08-1.68-6.15-2.54-9.22-.03-.11-.02-.19,0-.28.98-.63,1.64-1.72,1.64-2.97,0-1.95-1.58-3.53-3.53-3.53-.83,0-1.59.3-2.19.78-.14.05-.27.05-.44-.06-1.72-1.06-3.45-2.11-5.17-3.16-.21.05-.42.11-.63.16-.68.18-1.38.3-2.07.37,2.28,1.4,4.57,2.79,6.85,4.19.11.07.21.14.28.24-.1.32-.16.65-.16,1,0,.56.14,1.09.38,1.56-.02.07-.04.14-.08.18-1.67,1.65-3.36,3.29-5.05,4.92-.12.11-.34.14-.51.15-.51.05-1.03.07-1.54.09-.16,0-.36.02-.48-.07-3.04-2.34-6.07-4.7-9.09-7.06.04-.19.12-.37.12-.57,0-.97-.52-1.78-1.27-2.28.02-.08.04-.13.05-.18.41-1.76.81-3.52,1.25-5.28.04-.15.24-.29.41-.37.49-.23,1.02-.37,1.48-.64.27-.16.43-.17.69,0,.86.53,1.72,1.05,2.58,1.58.38-.58.9-.97,1.48-1.28-1.05-.64-2.09-1.28-3.14-1.92-.23-.14-.29-.29-.26-.56.25-1.82-.74-3.37-2.42-3.84-1.67-.47-3.33.34-4.07,2.02-.11.26-.24.33-.51.33-5.51,0-11.03,0-16.54,0-.29,0-.43-.09-.55-.36-.7-1.62-2.32-2.43-3.99-2.01-1.61.4-2.67,1.91-2.52,3.65.03.37-.06.55-.38.73-4.38,2.47-8.76,4.96-13.13,7.45-.09.05-.16.06-.24.07-.64-.63-1.51-1.02-2.48-1.02-1.95,0-3.53,1.58-3.53,3.53,0,.99.41,1.88,1.06,2.52.06.14.07.28-.02.46-1.52,3.12-3.03,6.24-4.54,9.37-.12.25-.25.34-.55.32-.08,0-.15-.02-.23-.02-.35,0-.69.07-1.01.16-.02,0-.04.01-.06.02-1.42.46-2.46,1.78-2.46,3.35,0,1.84,1.41,3.33,3.2,3.5.07.11.14.21.17.39.76,4.11,1.55,8.21,2.31,12.31.04.23,0,.52-.12.73-.64,1.12-.03,2.37,1.25,2.56.19.03.4.14.53.29,1.33,1.55,2.64,3.11,3.96,4.66.48.56,1,1.1,1.46,1.67.17.21.29.51.3.77.03.97.69,1.66,1.68,1.72.22.01.48.11.64.26.84.75,1.66,1.51,2.47,2.29-.03.14-.09.28-.09.43,0,.8.48,1.48,1.17,1.78.02.1.05.19.05.3-.01,1.44,0,2.88-.02,4.31-.58.34-.99.94-.99,1.65,0,.88.6,1.6,1.4,1.83.14.05.29.08.44.09.03,0,.06.02.1.02.04,0,.07-.02.1-.02.05,0,.1,0,.15,0,.08-.01.15-.05.22-.07.83-.22,1.46-.94,1.46-1.84,0-.03-.02-.06-.02-.09.04-.04.07-.09.13-.14,1.61-1.35,3.2-2.72,4.81-4.07.21.08.43.13.66.13,1.07,0,1.94-.87,1.94-1.94,0-.17-.06-.33-.1-.49.04-.1.09-.2.15-.27,1.16-1.3,2.33-2.59,3.52-3.87.15-.16.4-.27.62-.3,0,0,.01,0,.02,0,1.05-.03,1.89-.88,1.89-1.93,0-.47-.19-.88-.46-1.21.45-1.23.91-2.45,1.36-3.68.15.02.3.05.45.05,1.91,0,3.5-1.3,3.96-3.07,1.68.01,3.37,0,5.05,0,1.76,0,3.52,0,5.28,0,.15,0,.25.02.34.08.36,1.08,1.23,1.92,2.32,2.25.02,0,.05.02.07.02.3.08.61.14.94.14s.61-.05.9-.13c.15-.03.29-.08.42-.13.06-.02.11-.05.16-.07.29-.13.56-.3.79-.51.11-.09.21-.19.31-.29.03-.04.07-.08.1-.13.52-.62.85-1.4.85-2.27,0-1.08-.5-2.04-1.26-2.68,0-.07,0-.14.05-.23.77-1.82,1.54-3.63,2.3-5.45.06-.15.14-.23.25-.28.07,0,.14.02.22.02,1.05,0,1.98-.46,2.62-1.19.17-.15.32-.19.56-.1,1.5.59,3,1.17,4.51,1.74.27.1.31.26.32.52.07,1.9,1.53,3.32,3.4,3.34,1.8.02,3.31-1.38,3.39-3.23.02-.54-.16-1.1-.32-1.62-.08-.26-.08-.41.1-.6,1.03-1.09,2.04-2.19,3.06-3.29.17-.18.32-.21.56-.15.41.16.85.26,1.31.26,1.95,0,3.53-1.58,3.53-3.53s-1.58-3.53-3.53-3.53ZM111.35,95.16c-.2.04-.26.06-.32.06-1.78.05-3.55.09-5.33.16-.32.01-.38-.17-.46-.4-.69-1.93-1.38-3.87-2.07-5.8-.04-.1-.04-.21-.09-.44,2.79,2.17,5.48,4.26,8.27,6.43ZM102.63,93.22c.25.71.5,1.41.78,2.22-2.94.08-5.78.16-8.72.24-.02-.04-.05-.07-.08-.11.07-.12.12-.2.16-.26,1.72-2.19,3.45-4.37,5.18-6.55.3.11.62.19.96.19.06,0,.11-.03.17-.03.52,1.43,1.03,2.87,1.55,4.3ZM55.83,101.67c.06-.07.13-.14.2-.16,3.28-1.23,6.57-2.45,9.86-3.66.51.65,1.27,1.1,2.17,1.1.49,0,.93-.16,1.34-.39,1.73,1.47,3.45,2.95,5.17,4.44-.15.35-.25.72-.25,1.12s.11.8.27,1.16c-1.69,1.43-3.38,2.85-5.06,4.28-.71-.59-1.62-.96-2.61-.96-1.07,0-2.03.42-2.77,1.09-2.79-2.13-5.58-4.26-8.37-6.39-.04-.03-.09-.09-.12-.15.13-.37.21-.76.21-1.17,0-.11-.02-.21-.03-.31ZM70.65,97.14c.12-.31.2-.64.2-.98,0-.27-.08-.52-.16-.77.11-.09.25-.18.41-.24.21-.08.39-.25.58-.37,2.93-1.89,5.86-3.78,8.79-5.67.08-.05.15-.07.23-.09.49.45,1.14.74,1.86.74.39,0,.76-.08,1.09-.22,2.13,2.02,4.25,4.05,6.36,6.08,0,0,0,0,0,0-.27.43-.47.91-.47,1.46,0,0,0,.01,0,.02-3.44,1.7-6.89,3.41-10.34,5.1-.02.01-.06,0-.09.01-.51-.53-1.22-.88-2.01-.88-.44,0-.84.12-1.21.31-1.75-1.49-3.5-2.99-5.24-4.49ZM80.32,103.75c3.3-1.63,6.6-3.27,9.91-4.9.33.38.74.67,1.22.83-.09,2.4-.18,4.79-.27,7.19,0,.08-.05.14-.07.22-.35.17-.64.41-.89.7-.13.01-.25.01-.37-.03-2.3-.85-4.6-1.69-6.89-2.54-.99-.36-1.98-.74-3.08-1.14,0-.04-.02-.06-.02-.1.19-.1.33-.18.45-.24ZM91.29,94.22c-2.1-1.99-4.19-4-6.28-6,.09-.18.14-.37.2-.57,4.4-.22,8.72-.44,13.09-.65.06.19.14.36.24.53-1.75,2.22-3.5,4.44-5.26,6.65-.08.1-.27.15-.41.16-.08,0-.16,0-.24.01-.1-.01-.19-.06-.29-.06-.17,0-.31.07-.47.09,0,0-.01,0-.02,0-.19,0-.42-.04-.55-.16ZM81.62,77.51c.46-.46.9-.95,1.24-1.5.19-.31.34-.4.67-.4,2.71.01,5.43,0,8.14,0,2.73,0,5.46,0,8.19,0,.33,0,.49.1.67.4.31.52.72,1.01,1.16,1.44.21.21.27.34.2.62-.41,1.71-.8,3.42-1.22,5.13-.02.09-.08.18-.15.26-.99.15-1.81.77-2.17,1.67-.85.03-1.69.08-2.54.12-3.58.18-7.15.36-10.73.54-.43-.92-1.34-1.55-2.41-1.59,0-.03-.03-.05-.04-.08-.41-2.01-.81-4.03-1.23-6.04-.05-.26.04-.38.23-.57ZM63.75,84.87c4.44-2.53,8.89-5.06,13.34-7.57.12-.07.36-.02.51.05.51.21,1,.49,1.52.66.27.09.4.19.45.47.39,1.97.79,3.93,1.19,5.9.03.17.01.35-.05.52-.22.19-.39.43-.54.68-.18.13-.38.22-.59.21-3.98-.17-7.95-.35-11.93-.53-1.31-.06-2.62-.13-4.06-.2,0-.03-.02-.05-.02-.08.08-.06.13-.11.17-.13ZM54.82,98.89c1.5-3.08,2.99-6.15,4.47-9.23.11-.22.25-.32.43-.36.14.02.28.04.42.04,1.51,0,2.8-.96,3.3-2.3.11-.06.25-.09.43-.08,3.94.19,7.89.36,11.83.54,1.11.05,2.22.11,3.4.17-.07.11-.08.13-.09.13-3.14,2.04-6.29,4.07-9.44,6.09-.44-.3-.95-.52-1.53-.52-1.49,0-2.69,1.18-2.76,2.65-.06.04-.11.08-.19.11-3.19,1.18-6.38,2.37-9.57,3.55-.18.07-.35.11-.54,0-.06-.07-.12-.15-.19-.22-.09-.19-.08-.37.02-.57ZM56.34,117.89c-.8-4.18-1.59-8.36-2.38-12.54-.02-.08-.02-.15-.03-.23.21-.11.41-.24.6-.39.08.05.15.11.23.17,2.76,2.1,5.51,4.21,8.29,6.3.01.01.03.02.04.03-.18.46-.29.97-.29,1.49s.11,1.04.29,1.5c-.15.12-.32.23-.51.33-2.04,1.2-4.04,2.45-6.12,3.72-.05-.17-.09-.28-.11-.39ZM64.12,121.29c-.17.74-.33,1.47-.52,2.2,0,0,0,.02,0,.03l-.19.8c-.07.09-.09.19-.07.3l-.47,2.01s-.06,0-.08-.01l-.38-.47c-.08-.17-.19-.32-.34-.42l-.64-.78s0,0,0,0c-.02-.03-.04-.05-.06-.08l-.27-.33h0c-1.13-1.35-2.29-2.68-3.45-4.01-.39-.44-.39-.55.1-.85,2.14-1.31,4.28-2.62,6.41-3.93.32.29.67.53,1.06.7-.4,1.6-.74,3.22-1.11,4.83ZM65.07,127.21s1.65-8.79,1.98-10.39c1.28-.05,2.41-.68,3.14-1.64.13.03.27.07.42.13,3.64,1.35,7.29,2.67,10.93,4.01-.01.12-.04.24-.04.36,0,.24.03.47.07.7-.41.17-16.09,6.65-16.09,6.65h.02c-.14.06-.28.11-.43.18h0ZM69.64,139.87c0-1.63,0-3.11.02-4.6,0-.09.26-.26.39-.25.41.04.8.16,1.2.24.97.21,1.94.42,3.03.66-1.57,1.33-3.05,2.59-4.64,3.95ZM77.21,133.04c-.2.22-.38.44-.62.59-.13-.03-.24-.08-.38-.08-.52,0-1,.21-1.35.55-.85-.17-1.7-.36-2.55-.54v-.11c2.15-.77,4.31-1.54,6.47-2.31.02.03.04.06.06.09-.55.6-1.09,1.2-1.64,1.81ZM82,126.77c-.89.15-1.58.88-1.61,1.81-.03.02-.07.03-.11.05-3.22,1.15-6.44,2.29-9.66,3.45-.23.08-.46.17-.7.22-.36-.4-.86-.67-1.44-.67-.2,0-.38.06-.57.11-.79-.71-1.56-1.43-2.33-2.16-.11-.1-.21-.22-.35-.37.25-.11.43-.19.61-.27.99-.42,1.97-.84,2.96-1.26h0s11-4.54,11-4.54h0c.84-.34,1.68-.67,2.5-1.03.3.4.66.75,1.09,1.03-.46,1.22-.85,2.46-1.4,3.63ZM87,115.83c-.44-.16-.9-.26-1.39-.26-1.47,0-2.76.78-3.48,1.95-.49-.17-.98-.35-1.47-.52-3.24-1.18-6.48-2.36-9.72-3.55.04-.24.07-.48.07-.73,0-.59-.13-1.15-.36-1.66,1.75-1.48,3.5-2.96,5.26-4.42.36.17.75.28,1.18.28.85,0,1.59-.4,2.1-1.01.12,0,.25.02.4.07,3,1.12,6.01,2.22,9.02,3.33.35.13.7.24.94.48.01.46.16.88.38,1.26,0,.03.01.07,0,.1-.97,1.57-1.94,3.13-2.93,4.68ZM100.16,118.87h-.39c-3.31,0-6.61-.01-9.92.01-.07,0-.13,0-.2,0-.16-.78-.53-1.47-1.06-2.03.86-1.35,1.71-2.71,2.54-4.07.1-.17.2-.32.31-.46.28.1.58.18.89.18.45,0,.86-.13,1.24-.32,2.2,1.96,4.41,3.91,6.63,5.85.1.08.11.16.16.24-.09.19-.15.4-.2.61ZM106.48,110.62c-.78,1.81-1.54,3.63-2.3,5.45-.03.06-.07.09-.1.13-.16-.02-.33-.05-.5-.05-.73,0-1.4.22-1.96.6-.05-.03-.1-.04-.15-.09-1.3-1.16-2.61-2.31-3.92-3.46-.87-.77-1.76-1.56-2.68-2.37.09-.21.12-.45.16-.68,3.24-.38,6.47-.75,9.7-1.17.29-.04.54-.04.75.03.24.52.61.96,1.05,1.3,0,.09,0,.19-.05.31ZM105.2,106.97c-.11.07-.22.12-.4.14-3.28.37-6.57.77-9.85,1.17-.06,0-.12.01-.18.02-.36-.68-.97-1.16-1.72-1.37.1-2.42.18-4.85.29-7.27.88-.34,1.5-1.13,1.68-2.08.03,0,.05-.03.08-.03,1.45-.02,7.17-.24,8.58-.25.29,0,.44.07.54.36.8,2.28,1.62,4.55,2.45,6.82.02.05,0,.09,0,.13-.78.54-1.33,1.39-1.48,2.36ZM109.25,104.04c-.19-.03-.37-.06-.57-.06-.05,0-.1.01-.15.01-.03-.05-.08-.07-.1-.14-.28-.86-.61-1.7-.91-2.55-.48-1.33-.95-2.66-1.45-4.07,1.9-.06,3.73-.12,5.55-.17.4-.01.71.5.55.86-.91,1.99-1.81,3.98-2.74,5.95-.03.06-.1.11-.17.15ZM111.77,105.84c-.18-.34-.41-.65-.69-.91,0-.09.01-.19.07-.31.86-1.83,1.7-3.67,2.53-5.51.19-.42.37-.73.9-.73.24,0,.48-.21.73-.28.18-.05.42-.1.56-.02,2.81,1.43,5.62,2.87,8.42,4.33.16.08.25.29.37.44-.15.11-.3.28-.47.31-2.42.55-4.84,1.09-7.26,1.63-1.65.37-3.3.74-5.05,1.13-.02-.02-.07-.06-.11-.08ZM125.01,105.28c-1.06,1.15-2.12,2.3-3.2,3.43-.09.09-.32.12-.45.07-1.42-.5-2.66-.23-3.71.83-.23.23-.4.24-.68.13-1.42-.56-2.85-1.11-4.27-1.66-.16-.06-.32-.14-.48-.21,0-.04,0-.08,0-.12,4.29-.96,8.57-1.91,12.86-2.87.02.05.04.1.06.15-.04.08-.07.18-.13.24ZM125.63,100.78c-.18.06-.37.06-.59-.1-.27-.19-.58-.31-.87-.46-2.45-1.26-4.91-2.52-7.36-3.79-.49-.25-.62-1.13-.23-1.51,1.63-1.59,3.27-3.19,4.91-4.78.07-.07.12-.12.18-.17.53.32,1.15.52,1.82.52.04.06.09.11.12.21.84,3.09,1.69,6.18,2.55,9.26.04.14.05.24.03.34-.2.14-.38.3-.55.48Z"/>
  <path class="cls-1" d="M163.67,76.87c-1.16-.27-2.28-.52-3.37-.8-4.7-1.23-9.45-2.2-14.33-2.28-1.02-.02-2.08-.12-3.05.11-4.2,1.02-8.38,2.15-12.57,3.24-5.1,1.34-10.18,2.7-15.29,4.01-1.8.46-3.63.7-5.46.1-.96-.32-1.3-1.33-.76-2.19.34-.54.8-.9,1.32-1.2.38-.27.81-.48,1.24-.68,4.02-1.87,8.07-3.69,12.06-5.62.39-.19.76-.39,1.13-.61,1.2-.75,2.29-1.66,3.2-2.79,1.02-1.29,1.51-2.74,1.01-4.44-.3-1.01-.95-1.88-1.74-2.57-1.21-1.05-2.51-2.07-4.09-2.29-5.17-.74-10.35-1.35-15.54-1.96-.58-.07-1.16.04-1.68.3-5.22,2.67-15.24,9.32-20.47,11.99-.97.5-2.51,1.66-5.18,1.33-1.49-.18-2.38-1.89-1.57-3.15.39-.6.92-1.16,1.5-1.57,6.51-4.65,17.94-12.71,24.47-17.32.04-.03.1-.04.15-.07.07-.05.13-.09.2-.14.2-.14.49-.23.73-.21,5.07.43,10.15.88,15.22,1.33,4.14.36,8.28.72,12.41,1.1,1.24.12,2.52.16,3.7.52,3.22.97,6.4,2.09,9.6,3.14,6.53,2.15,13.06,4.3,19.6,6.43.14.05.24.1.33.15.55.15,1.12.32,1.71.52.77.26,1.57-.26,1.68-1.06,0-.01,0-.02,0-.03.11-.86-.42-1.68-1.25-1.95-2.56-.82-5.12-1.61-7.67-2.45-4.96-1.64-9.91-3.3-14.87-4.94-2.65-.88-5.3-1.75-7.96-2.61-.71-.23-1.9-.47-2.64-.53-6.32-.57-12.64-1.14-18.95-1.7-3.85-.34-7.7-.68-11.56-.98-.38-.03-.75.07-1.06.29-3.13,2.18-6.23,4.4-9.34,6.6-3.62,2.57-12.25,9.08-15.88,11.64-1.5,1.06-2.72,2.34-3.11,4.21-.5,2.37,1.06,4.76,3.39,5.41,1.61.44,3.2.3,4.77-.18.93-.29,6.84-4.61,7.83-4.97-.34,1.12-.49,2.18-.18,3.26.6,2.12,2.4,3.11,4.51,2.96,1.8-.12,3.36-.93,4.67-2.12,1.64-1.48,3.18-3.07,4.74-4.63,2.28-2.28,4.54-4.59,6.83-6.87.16-.16.47-.27.7-.24,3.19.37,6.39.71,9.57,1.17,1.48.22,2.67,1.12,3.6,2.28.57.71.46,1.44-.21,2.29-.85,1.06-1.92,1.86-3.11,2.46-2.35,1.19-4.75,2.29-7.13,3.41-1.96.92-3.95,1.79-5.9,2.72-1.68.8-3,1.98-3.56,3.83-.63,2.07.46,4.31,2.45,5.17,1.66.72,3.4.87,5.14.59,2.01-.32,4-.8,5.97-1.3,4.82-1.24,9.63-2.53,14.45-3.8,3.16-.83,6.31-1.71,9.49-2.45,1.04-.24,2.16-.16,3.25-.12,4.03.14,8.02.82,11.92,1.86,2.3.61,4.64,1.1,6.98,1.6.92.2,1.65-.39,1.79-1.4.15-1.1-2.26-1.34-3.79-1.81ZM108.13,60.28c-2.95,2.97-5.87,5.97-8.85,8.91-1.02,1-2.17,1.88-3.69,2.02-.93.08-1.57-.47-1.4-1.37.13-.68.43-1.36.8-1.95.53-.84,1.18-1.61,1.82-2.38.26-.32.59-.63.95-.82,3.02-1.59,6.06-3.14,9.07-4.73.55-.29,1.06-.3,1.69-.11-.15.16-.27.3-.39.42Z"/>
  <path class="cls-1" d="M130.36,143.11c-1.69-.27-3.3.07-4.83.77-.89.41-1.74.89-2.68,1.37.19-1.16.21-2.23-.23-3.26-.86-2.03-2.78-2.78-4.85-2.37-1.77.35-3.21,1.35-4.36,2.69-1.43,1.68-2.76,3.44-4.11,5.19-1.98,2.56-3.92,5.13-5.9,7.69-.14.18-.43.32-.66.32-3.21.04-6.43.11-9.64.05-1.5-.03-2.79-.78-3.86-1.8-.66-.63-.64-1.37-.08-2.3.7-1.16,1.67-2.09,2.77-2.83,2.18-1.47,4.42-2.88,6.64-4.29,1.83-1.16,3.69-2.28,5.51-3.45,1.57-1.01,2.73-2.35,3.05-4.26.37-2.2-.9-4.17-3.05-4.81-1.75-.51-3.51-.44-5.21.06-1.95.57-3.87,1.3-5.76,2.05-4.63,1.84-9.24,3.73-13.85,5.6-3.03,1.23-6.04,2.5-9.1,3.63-1.01.37-2.16.43-3.25.54-4.26.4-8.5.09-12.73-.43-2.13-.26-4.27-.43-6.41-.61-.94-.08-1.69.6-1.6,1.61.12,1.31,3,1.5,3,1.5,1.45.15,2.79.26,4.12.43,4.82.62,9.65.98,14.5.45,1.01-.11,2.08-.14,3.01-.5,4.04-1.54,8.04-3.19,12.05-4.81,4.89-1.97,9.76-3.97,14.65-5.92,1.72-.68,3.5-1.15,5.38-.79,1.16.22,1.55,1,1.06,2.08-.41.91-1.18,1.44-1.98,1.94-3.75,2.36-7.53,4.69-11.25,7.11-1.67,1.08-3.12,2.44-4.18,4.18-.76,1.25-1.07,2.57-.64,3.99.39,1.28,1.27,2.22,2.38,2.95,1.29.85,2.68,1.65,4.22,1.67,5.22.07,10.44.02,15.66-.03.55,0,1.19-.21,1.64-.52,4.84-3.31,9.65-6.68,14.49-10,.89-.61,1.86-1.13,2.86-1.51.76-.29,1.63-.41,2.45-.42,1.35-.01,2.08,1.07,1.54,2.3-.31.69-.79,1.36-1.34,1.87-5.86,5.44-11.76,10.84-17.65,16.25-.18.16-.46.29-.69.3-5.09.22-10.17.41-15.26.61-4.15.16-8.3.34-12.45.48-1.24.04-2.52.16-3.73-.04-3.32-.55-6.62-1.26-9.92-1.9-6.61-1.28-13.22-2.55-19.83-3.81-.28.04-4.08-1-4.07.8,0,1.05.44,1.58,1.47,1.77,2.64.49,5.29.95,7.93,1.46,5.13.99,10.25,2.02,15.37,3.02,3.09.6,6.17,1.2,9.26,1.76.53.1,1.1.02,1.65,0,6.34-.24,12.68-.47,19.02-.72,3.86-.15,7.73-.31,11.59-.49.35-.02.77-.2,1.04-.44,2.82-2.56,5.61-5.14,8.41-7.72,3.27-3,6.54-6.01,9.81-9.01,1.35-1.24,2.39-2.65,2.55-4.54.22-2.51-1.42-4.55-3.92-4.95ZM119.42,145.78c-.42.9-.97,1.75-1.5,2.59-.22.35-.51.7-.84.93-2.79,1.96-5.61,3.88-8.4,5.84-.51.36-1.02.44-1.66.32.13-.18.23-.33.33-.47,2.54-3.32,5.06-6.67,7.65-9.96.88-1.12,1.91-2.14,3.41-2.47.91-.2,1.62.26,1.56,1.18-.04.69-.25,1.4-.55,2.03Z"/>
</svg>